<svg width="13" height="8" viewBox="0 0 13 8" fill="none" xmlns="http://www.w3.org/2000/svg">
<path d="M7.26946 7.6625L12.6817 1.95767C12.7826 1.85129 12.8626 1.72499 12.9173 1.586C12.9719 1.447 13 1.29803 13 1.14758C13 0.843741 12.8855 0.552344 12.6817 0.337496C12.5807 0.231114 12.4609 0.146727 12.3291 0.0891533C12.1972 0.0315797 12.0559 0.00194772 11.9131 0.00194772C11.6249 0.00194772 11.3484 0.122648 11.1446 0.337496L6.50092 5.24365L1.85725 0.337496C1.75662 0.230555 1.63691 0.145674 1.505 0.0877485C1.37309 0.0298231 1.23161 0 1.08872 0C0.945823 0 0.804342 0.0298231 0.672437 0.0877485C0.540531 0.145674 0.420813 0.230555 0.320186 0.337496C0.21873 0.443564 0.138201 0.569756 0.0832472 0.708793C0.0282927 0.847831 9.53674e-07 0.996961 9.53674e-07 1.14758C9.53674e-07 1.2982 0.0282927 1.44733 0.0832472 1.58637C0.138201 1.72541 0.21873 1.8516 0.320186 1.95767L5.73239 7.6625C5.83302 7.76944 5.95274 7.85433 6.08464 7.91225C6.21655 7.97018 6.35803 8 6.50092 8C6.64382 8 6.7853 7.97018 6.91721 7.91225C7.04911 7.85433 7.16883 7.76944 7.26946 7.6625Z" fill="#7077A1"/>
</svg>
